<svg xmlns="http://www.w3.org/2000/svg" viewBox="0 0 640 380" font-family="system-ui, sans-serif"><rect width="640" height="380" fill="#fff"/><line x1="64" x2="616" y1="328" y2="328" stroke="#e5e5e5"/><text x="56" y="332" font-size="11" text-anchor="end" fill="#555">0.00</text><line x1="64" x2="616" y1="258.9090909090909" y2="258.9090909090909" stroke="#e5e5e5"/><text x="56" y="262.9090909090909" font-size="11" text-anchor="end" fill="#555">0.25</text><line x1="64" x2="616" y1="189.8181818181818" y2="189.8181818181818" stroke="#e5e5e5"/><text x="56" y="193.8181818181818" font-size="11" text-anchor="end" fill="#555">0.50</text><line x1="64" x2="616" y1="120.72727272727275" y2="120.72727272727275" stroke="#e5e5e5"/><text x="56" y="124.72727272727275" font-size="11" text-anchor="end" fill="#555">0.75</text><line x1="64" x2="616" y1="51.63636363636365" y2="51.63636363636365" stroke="#e5e5e5"/><text x="56" y="55.63636363636365" font-size="11" text-anchor="end" fill="#555">1.00</text><text x="64" y="346" font-size="11" text-anchor="middle" fill="#555">0</text><text x="174.4" y="346" font-size="11" text-anchor="middle" fill="#555">5</text><text x="284.8" y="346" font-size="11" text-anchor="middle" fill="#555">11</text><text x="395.2" y="346" font-size="11" text-anchor="middle" fill="#555">16</text><text x="505.6" y="346" font-size="11" text-anchor="middle" fill="#555">21</text><text x="616" y="346" font-size="11" text-anchor="middle" fill="#555">26</text><text x="340" y="368" font-size="12" text-anchor="middle" fill="#222">median seconds per answer (lower is better)</text><text transform="translate(16 176) rotate(-90)" font-size="12" text-anchor="middle" fill="#222">quality ratio vs reference (rubric mean)</text><circle cx="544" cy="51.63636363636365" r="6" fill="#111"/><text x="536" y="41.63636363636365" font-size="11" text-anchor="end" fill="#111">Reference: Opus + web search</text><line x1="112.64718774232983" x2="112.64718774232983" y1="227.59250467524487" y2="206.5537558589255" stroke="#2563eb" stroke-width="2"/><circle cx="112.64718774232983" cy="217.68597348220516" r="6" fill="#2563eb"/><text x="122.64718774232983" y="221.68597348220516" font-size="11" fill="#2563eb">Qwen2.5-1.5B-Instruct (Q4_K_M)</text><line x1="183.07573551962258" x2="183.07573551962258" y1="177.08965239080825" y2="153.227387131613" stroke="#d97706" stroke-width="2"/><circle cx="183.07573551962258" cy="165.31374606505761" r="6" fill="#d97706"/><text x="193.07573551962258" y="169.31374606505761" font-size="11" fill="#d97706">Qwen3-4B-Instruct-2507 (Q4_K_M)</text></svg>
